<svg xmlns="http://www.w3.org/2000/svg" viewBox="0 0 32 32" fill="none">
  <rect width="32" height="32" rx="8" fill="#3b82f6"/>
  <path d="M16 7.5c-.8 0-1.6.7-1.6 1.6 0 .6-.5 1.1-1 1.3-.6.3-1.3.1-1.7-.3-.6-.6-1.6-.6-2.2 0-.6.6-.6 1.6 0 2.2.4.4.5 1.1.3 1.7-.2.6-.7 1-1.3 1-.9 0-1.6.7-1.6 1.6s.7 1.6 1.6 1.6c.6 0 1.1.4 1.3 1 .2.6 0 1.3-.3 1.7-.6.6-.6 1.6 0 2.2.6.6 1.6.6 2.2 0 .4-.4 1.1-.5 1.7-.3.6.2 1 .7 1 1.3 0 .9.7 1.6 1.6 1.6s1.6-.7 1.6-1.6c0-.6.4-1.1 1-1.3.6-.2 1.3 0 1.7.3.6.6 1.6.6 2.2 0 .6-.6.6-1.6 0-2.2-.4-.4-.5-1.1-.3-1.7.2-.6.7-1 1.3-1 .9 0 1.6-.7 1.6-1.6s-.7-1.6-1.6-1.6c-.6 0-1.1-.4-1.3-1-.2-.6 0-1.3.3-1.7.6-.6.6-1.6 0-2.2-.6-.6-1.6-.6-2.2 0-.4.4-1.1.5-1.7.3-.6-.2-1-.7-1-1.3C17.6 8.2 16.9 7.5 16 7.5z" fill="white" opacity="0.95"/>
  <circle cx="16" cy="16" r="3" fill="#3b82f6"/>
</svg>
